<svg xmlns="http://www.w3.org/2000/svg" viewBox="0 0 500 500"><g id="freepik--Shadow--inject-15"><ellipse id="freepik--path--inject-15" cx="250" cy="416.24" rx="193.89" ry="11.32" style="fill:#f5f5f5"></ellipse></g><g id="freepik--character-3--inject-15"><g id="freepik--group--inject-15"><path d="M382.39,157.91c8.06,5.54,6.55,29.62,9.72,34.09,1.39,2,12.49,5.76,12.49,5.76l-3,6.63s-14.78-2.48-19.28-9.28c-4.77-7.22-6.41-23.48-6.41-23.48l0-7.42Z" style="fill:#263238"></path><path d="M404.6,197.76l-3,6.63s-14.78-2.48-19.28-9.28c-2.3-3.49-3.88-9.08-4.88-13.93-1.09-5.2-1.53-9.55-1.53-9.55l.13-7.54V164l1.82-1.74.07-.08,4.42-4.24c8.06,5.54,6.55,29.62,9.72,34.09C393.5,194,404.6,197.76,404.6,197.76Z" style="fill:#fff;opacity:0.25"></path><path d="M377.48,181.18c-1.09-5.2-1.53-9.55-1.53-9.55l.13-7.54,1.82-1.86.07-.08S380.82,173.93,377.48,181.18Z" style="opacity:0.2;isolation:isolate"></path><polygon points="355.53 406.79 363.65 407.65 365.17 390.15 357.06 389.3 355.53 406.79" style="fill:#9f5b53"></polygon><polygon points="315.05 406.2 322.91 406.2 323.56 387.99 315.69 387.99 315.05 406.2" style="fill:#9f5b53"></polygon><path d="M324,405.29h-9.55a.69.69,0,0,0-.67.54l-1.55,7a1.17,1.17,0,0,0,.9,1.38l.25,0c3.09-.05,5.34-.24,9.22-.24,2.39,0,9.6.25,12.9.25s3.73-3.26,2.38-3.56c-6.06-1.32-10.62-3.15-12.56-4.89A1.89,1.89,0,0,0,324,405.29Z" style="fill:#263238"></path><path d="M364.5,405H355a.69.69,0,0,0-.67.54l-1.55,7a1.17,1.17,0,0,0,.9,1.38l.25,0c3.09-.05,5.34-.24,9.22-.24,2.39,0,9.6.25,12.9.25s3.73-3.26,2.38-3.56c-6.06-1.32-10.62-3.15-12.56-4.89A1.89,1.89,0,0,0,364.5,405Z" style="fill:#263238"></path><polygon points="357.06 389.3 365.17 390.15 364.38 399.18 356.26 398.32 357.06 389.3" style="opacity:0.2;isolation:isolate"></polygon><polygon points="315.69 388 323.56 388 323.22 397.39 315.35 397.39 315.69 388" style="opacity:0.2;isolation:isolate"></polygon><path d="M318.94,214.26h41.72c4,21.67,16.39,120.33,7.48,188.63L354,401.14s1.31-112.68-11.16-146.2c-1.43,17.94-3.14,37-4.62,47.19-3.63,25-11.4,99.63-11.4,99.63H312.45s2.94-72.29,4.3-96.86S318.86,221.91,318.94,214.26Z" style="fill:#E52552"></path><path d="M342.85,254.94A111.8,111.8,0,0,1,347.51,273c1.17-16-3.5-32.89-3.5-32.89Z" style="opacity:0.2;isolation:isolate"></path><polygon points="361.01 214.76 319.01 214.76 319.01 219.76 361.55 219.25 361.01 214.76" style="fill:#263238"></polygon><rect x="332.51" y="212.51" width="1.5" height="8.88" transform="translate(666.53 433.9) rotate(180)" style="fill:#E52552"></rect><rect x="353.76" y="212.51" width="1.5" height="8.88" transform="translate(709.03 433.9) rotate(180)" style="fill:#E52552"></rect><rect x="341.87" y="213.89" width="7.77" height="5.6" transform="translate(691.51 433.38) rotate(180)" style="fill:#fff"></rect><path d="M382.39,157.91s-22.65-9.59-35.24-4.87S320.38,191.45,319,214.76l41.91.72S370.77,179.31,382.39,157.91Z" style="fill:#263238"></path><path d="M382.39,157.91c-7,12.92-13.39,31.22-17.33,43.7-2.59,8.19-4.14,13.87-4.14,13.87l-1.9,0-40-.69c1.37-23.31,15.55-57,28.14-61.72S382.39,157.91,382.39,157.91Z" style="fill:#fff;opacity:0.30000000000000004"></path><path d="M360.92,152.22c1.35,5.16,10.18,9.34,10.18,9.34s6,1.92,5.93-.36c-2.66-2.43-3.19-4.77-2.63-6.93a10.16,10.16,0,0,1,1.92-3.6,20.43,20.43,0,0,1,1.49-1.74l-5.17-14C370.75,140.72,366.48,150.78,360.92,152.22Z" style="fill:#9f5b53"></path><path d="M371.87,141.2c-3.53,6.27.33,11.15,2.53,13.07a10.16,10.16,0,0,1,1.92-3.6Z" style="opacity:0.2;isolation:isolate"></path><path d="M391.44,123.33s1.73,11.17-4.2,15.48-6-16.48-6-16.48Z" style="fill:#263238"></path><path d="M370.05,147.73a10.13,10.13,0,0,0,11.65,3.91,11.23,11.23,0,0,0,6.43-5.27,11.89,11.89,0,0,0,.54-1.07c2.9-6.84,3.8-18.78-3.43-23.24a11,11,0,0,0-15.13,3.48,10.82,10.82,0,0,0-1.64,4.84C367.6,138.36,366.71,143,370.05,147.73Z" style="fill:#9f5b53"></path><path d="M380.12,134.62c-.15.63.14,1.22.57,1.29s.85-.4,1-1-.15-1.22-.57-1.29S380.23,134,380.12,134.62Z" style="fill:#263238"></path><path d="M387.41,135.85c-.15.63.15,1.22.57,1.29s.85-.4,1-1-.15-1.23-.57-1.3S387.51,135.23,387.41,135.85Z" style="fill:#263238"></path><path d="M385,135.77a23.15,23.15,0,0,0,2.15,6,3.81,3.81,0,0,1-3.2.06Z" style="fill:#7a3935"></path><path d="M390.64,133.19a.41.41,0,0,1-.4-.08,3.09,3.09,0,0,0-2.66-.77.39.39,0,0,1-.47-.27.38.38,0,0,1,.26-.47h0a3.8,3.8,0,0,1,3.36.94.36.36,0,0,1,.05.53h0Z" style="fill:#263238"></path><path d="M379.17,131.46a.36.36,0,0,1-.2-.11.39.39,0,0,1,.12-.53h0a3.79,3.79,0,0,1,3.49-.29.38.38,0,0,1,.18.51h0a.39.39,0,0,1-.51.17h0a3.09,3.09,0,0,0-2.77.28A.36.36,0,0,1,379.17,131.46Z" style="fill:#263238"></path><path d="M375.94,121.48V125a2.66,2.66,0,0,0-1.71,3.15c.78,3.09-1.44,7.47-3.93,9,0,0,.08-1.29-1-1.12s-1.61,6.88.11,10.32c0,0-2.84-3.26-3.8-10.48-.89-6.67-.45-12.1,1.18-14.44Z" style="fill:#263238"></path><path d="M383.15,143.82a21.81,21.81,0,0,0-1.48,2.67c-.18-.05-.35-.09-.52-.15-2.34-.69-3.2-1.78-3.44-2.78a3.08,3.08,0,0,1,0-1.49,2.88,2.88,0,0,1,.3-.79,11.76,11.76,0,0,0,4.31,2.3C382.84,143.74,383.15,143.82,383.15,143.82Z" style="fill:#263238"></path><path d="M382.36,143.58l-.46.77c-2.2-.65-3.66-1.41-4.15-2.28a2.88,2.88,0,0,1,.3-.79A11.76,11.76,0,0,0,382.36,143.58Z" style="fill:#fff"></path><path d="M381.15,146.34c-2.34-.69-3.2-1.78-3.44-2.78a7.69,7.69,0,0,1,2.45,1.28A3,3,0,0,1,381.15,146.34Z" style="fill:#de5753"></path><path d="M390.36,139.6c-1.17-2.2-10.21-1.83-18.62-1.68l-.11.32c-1.69-3.12-3.89-3.69-5.75-1.61,2.47-1.76,4.19-.52,5.58,2.15a22.4,22.4,0,0,0-1.14,7.45c-2.14-1.58-3.48-4.71-4.74-8,1.16,3.8,2.43,7.41,4.8,9,0,.25,0,.5.06.75,3.89,4.34,11.1,6.08,15.37,3.34C388.89,149.22,390.12,145,390.36,139.6Z" style="fill:#E52552"></path><path d="M390.36,139.6c-1.17-2.2-10.21-1.83-18.62-1.68l-.11.32c-1.69-3.12-3.89-3.69-5.75-1.61,2.47-1.76,4.19-.52,5.58,2.15a22.4,22.4,0,0,0-1.14,7.45c-2.14-1.58-3.48-4.71-4.74-8,1.16,3.8,2.43,7.41,4.8,9,0,.25,0,.5.06.75,3.89,4.34,11.1,6.08,15.37,3.34C388.89,149.22,390.12,145,390.36,139.6Z" style="fill:#fff;opacity:0.6000000000000001"></path><path d="M363.92,136.29a7.65,7.65,0,0,0,3.67,4.54c2.37,1.26,4.13-.72,4-3.25-.17-2.25-1.58-5.69-4.19-5.89S363.24,133.9,363.92,136.29Z" style="fill:#9f5b53"></path><path d="M376,125s6,2.54,9.42-.17c0,0-2.76,3.19-6.58,2.85,0,0,7.85,3.8,12.07-1.88S388,115,378.34,115.35s-14.16,5.59-13.21,13.64Z" style="fill:#263238"></path><path d="M374.4,154.27a13.51,13.51,0,0,1-2.17,5.42s-6.46-4.38-8.08-9.32l-5.55,1.48s1.55,10.75,4.85,14.85l9.38-3.58,2.35,4S379.58,162.74,374.4,154.27Z" style="fill:#263238"></path><path d="M374.4,154.27a13.51,13.51,0,0,1-2.17,5.42s-6.46-4.38-8.08-9.32l-5.55,1.48s1.55,10.75,4.85,14.85l9.38-3.58,2.35,4S379.58,162.74,374.4,154.27Z" style="fill:#fff;opacity:0.5;isolation:isolate"></path><path d="M413.5,198.21s-9.56-5.67-10.74-4.48-6.11,7-4,8,14,2.56,14.16,1.41S415.28,199.23,413.5,198.21Z" style="fill:#9f5b53"></path><path d="M365.06,201.61c-2.59,8.19-4.14,13.87-4.14,13.87l-1.9,0c-21.69-14.52-20.2-46.32-20.2-46.32Z" style="opacity:0.2;isolation:isolate"></path><path d="M374.62,205.11,386,212.27a12.6,12.6,0,0,1,3.43-.12c.91.27,12.61,4.68,12.07,5.73s-4.36,4.8-5.39,5.88-11.16-4-12-5a5.33,5.33,0,0,1-1.12-2.22l-12.27-6.78Z" style="fill:#9f5b53"></path><path d="M349.53,154.27c4.34.38,5,29.66,10.34,36.19S384,211.19,384,211.19l-1.63,6.07s-23.59-10.25-30.54-17-13-31.15-13-31.15S341,153.52,349.53,154.27Z" style="fill:#263238"></path><path d="M349.53,154.27c4.34.38,5,29.66,10.34,36.19S384,211.19,384,211.19l-1.63,6.07s-23.59-10.25-30.54-17-13-31.15-13-31.15S341,153.52,349.53,154.27Z" style="fill:#fff;opacity:0.25"></path></g></g><g id="freepik--character-2--inject-15"><g id="freepik--group--inject-15"><path d="M186.38,162.27c-4,6.1-18.79,24.3-17.07,31s16.29,2.5,16.29,2.5l.78-9s-3.84.86-4.13.46,12.19-12,12.19-12v-9.75Z" style="fill:#E52552"></path><path d="M194.44,165.44v9.75s-3.25,3-6.4,6.06-5.93,5.78-5.79,6c.29.4,4.13-.46,4.13-.46l-.78,9S171,200,169.31,193.3s13.11-24.93,17.07-31Z" style="opacity:0.1;isolation:isolate"></path><path d="M194.44,170.35v4.84s-3.25,3-6.4,6.06c-.95-5.93,4.27-12.38,4.27-12.38Z" style="opacity:0.2;isolation:isolate"></path><path d="M190.7,229.4c-2.52.55-4.37,30.09-4.37,30.09s5.42.44,14.24-4.32,5.69-22.8,5.69-22.8Z" style="fill:#263238"></path><path d="M189.51,229.81s26.75-9.09,28.6-8.95,4.08,28.21,4.88,31.64S196.66,272,194.51,269.12,189.51,229.81,189.51,229.81Z" style="fill:#263238"></path><path d="M200,268.22c-2.84,1.16-4.94,1.63-5.48.9-2.16-2.9-5-39.31-5-39.31s26.75-9.09,28.6-8.95c.37,0,.75,1.15,1.13,3,1.55,7.33,3.11,25.93,3.75,28.68C223.59,255.08,208.49,264.76,200,268.22Z" style="fill:#fff;opacity:0.2;isolation:isolate"></path><path d="M200,268.22c-.77-.17-1.3-.36-1.4-.55-.5-.91-4.74-35.74-4.08-36.5S217.32,222,217.32,222l1.92,1.78c1.55,7.33,3.11,25.93,3.75,28.68C223.59,255.08,208.49,264.76,200,268.22Z" style="opacity:0.2;isolation:isolate"></path><polygon points="176.34 404.86 184.61 405.74 188.03 387.86 179.75 386.98 176.34 404.86" style="fill:#e4897b"></polygon><polygon points="223.01 406.45 231.11 406.14 232.98 387.45 224.87 387.76 223.01 406.45" style="fill:#e4897b"></polygon><path d="M175.6,405h9.85a.71.71,0,0,1,.69.56l1.6,7.22a1.2,1.2,0,0,1-.92,1.42l-.27,0c-3.18-.05-5.5-.25-9.51-.25-2.46,0-9.9.26-13.3.26s-3.85-3.36-2.46-3.67c6.25-1.36,11-3.25,13-5A2,2,0,0,1,175.6,405Z" style="fill:#263238"></path><path d="M172.92,406.43a2.41,2.41,0,0,1-1.56-.41,1.13,1.13,0,0,1-.4-1,.57.57,0,0,1,.33-.54c.9-.46,3.52,1.15,3.8,1.33a.19.19,0,0,1,.1.19.19.19,0,0,1-.15.16A9.43,9.43,0,0,1,172.92,406.43Zm-1.21-1.68a.56.56,0,0,0-.25.05c-.05,0-.11.08-.12.23a.78.78,0,0,0,.26.69,4,4,0,0,0,2.89.15A7.82,7.82,0,0,0,171.71,404.75Z" style="fill:#E52552"></path><path d="M175,406.15h-.09c-.84-.46-2.46-2.24-2.29-3.1a.62.62,0,0,1,.62-.5,1,1,0,0,1,.81.24c.94.77,1.14,3.1,1.15,3.21a.22.22,0,0,1-.1.18A.19.19,0,0,1,175,406.15Zm-1.63-3.3h-.09c-.25,0-.27.15-.28.2-.1.53.93,1.88,1.76,2.51a4.5,4.5,0,0,0-.95-2.54A.71.71,0,0,0,173.36,402.85Z" style="fill:#E52552"></path><path d="M221.83,404.75h9.85a.72.72,0,0,1,.69.56l1.6,7.22A1.21,1.21,0,0,1,233,414a1.1,1.1,0,0,1-.26,0c-3.19-.05-5.51-.24-9.51-.24-2.46,0-9.9.25-13.3.25s-3.85-3.36-2.46-3.67c6.25-1.36,11-3.25,13-5A2,2,0,0,1,221.83,404.75Z" style="fill:#263238"></path><path d="M219.15,406.18a2.46,2.46,0,0,1-1.56-.42,1.1,1.1,0,0,1-.4-1,.55.55,0,0,1,.33-.53c.89-.47,3.51,1.14,3.8,1.33a.16.16,0,0,1,.09.18.19.19,0,0,1-.14.17A10.13,10.13,0,0,1,219.15,406.18Zm-1.21-1.69a.54.54,0,0,0-.25.06c-.05,0-.11.07-.12.22a.76.76,0,0,0,.26.69,3.88,3.88,0,0,0,2.88.15A7.89,7.89,0,0,0,217.94,404.49Z" style="fill:#E52552"></path><path d="M221.22,405.89h-.09c-.84-.46-2.46-2.24-2.29-3.1a.62.62,0,0,1,.61-.5,1,1,0,0,1,.82.25c.94.76,1.13,3.09,1.14,3.2a.19.19,0,0,1-.09.18A.17.17,0,0,1,221.22,405.89Zm-1.63-3.29h-.09c-.25,0-.27.14-.28.19-.11.53.93,1.88,1.76,2.51a4.54,4.54,0,0,0-1-2.54A.67.67,0,0,0,219.59,402.6Z" style="fill:#E52552"></path><polygon points="179.75 386.98 188.03 387.86 186.26 397.08 177.98 396.2 179.75 386.98" style="opacity:0.2;isolation:isolate"></polygon><polygon points="224.87 387.77 232.98 387.46 232.01 397.1 223.9 397.41 224.87 387.77" style="opacity:0.2;isolation:isolate"></polygon><path d="M235.23,392.56l-14.72-2.08s7-104,4.07-134.27l-.12.59c-1.51,7.72-3.13,15.72-4.69,23.18-.37,1.76-.73,3.49-1.1,5.18-1.62,7.59-3.15,14.31-4.41,19.16-7,26.86-23,89.27-23,89.27H176s11.37-59.91,16.39-86.45c5.25-27.76,15.89-91,16.64-96.16l41.43-3.7S253.57,253.16,235.23,392.56Z" style="fill:#263238"></path><polygon points="237.39 393.88 219.44 393.78 219.78 388.73 238.45 388.51 237.39 393.88" style="fill:#E52552"></polygon><polygon points="192.67 393.71 175.18 393.71 175.71 388.53 193.9 388.19 192.67 393.71" style="fill:#E52552"></polygon><path d="M224.56,255.17c0,.54-.06,1.08-.1,1.63-1.51,7.72-3.13,15.72-4.69,23.18-.37,1.76-.73,3.49-1.1,5.18-1.26-17.67-1.22-40.53-1.22-40.53C222.13,253.38,224.56,255.17,224.56,255.17Z" style="opacity:0.2;isolation:isolate"></path><path d="M251.43,207.28l-44.88,5.84s-5-31.78-20.17-50.85c0,0,20.66-13.35,33.88-10.88,4.51.85,9.23,5.1,13.6,11.21,5.6,7.8,10.64,18.63,14,29.22A96.8,96.8,0,0,1,251.43,207.28Z" style="fill:#E52552"></path><path d="M206.55,153c-.44,5.32-8.42,11-8.42,11s-5.54,2.91-5.9.67c2.2-2.86,2.32-5.25,1.39-7.29a10.28,10.28,0,0,0-2.51-3.22,21,21,0,0,0-1.77-1.45L192,138C194.88,143.33,200.83,152.5,206.55,153Z" style="fill:#e4897b"></path><path d="M193.86,144c4.56,5.57,1.6,11-.24,13.31a10.28,10.28,0,0,0-2.51-3.22Z" style="opacity:0.2;isolation:isolate"></path><path d="M177.62,123.34s-3.35,10.79,1.87,15.93,8.34-15.43,8.34-15.43Z" style="fill:#263238"></path><path d="M195.18,150.63a10.16,10.16,0,0,1-12.11,2.14,11.33,11.33,0,0,1-5.58-6.16c-.14-.37-.26-.75-.37-1.14-1.86-7.19-1-19.14,6.82-22.48A11,11,0,0,1,199.3,133.7C199,141.72,199.17,146.46,195.18,150.63Z" style="fill:#e4897b"></path><path d="M187.16,136.17c.05.65-.32,1.19-.76,1.19s-.78-.52-.8-1.17.33-1.19.76-1.19S187.14,135.51,187.16,136.17Z" style="fill:#263238"></path><path d="M179.76,136.31c.06.64-.33,1.18-.75,1.19s-.78-.52-.8-1.17.33-1.19.76-1.2S179.75,135.69,179.76,136.31Z" style="fill:#263238"></path><path d="M182.12,136.58a23.34,23.34,0,0,1-3,5.66,3.78,3.78,0,0,0,3.15.52Z" style="fill:#de5753"></path><path d="M177,133.2a.43.43,0,0,0,.41,0,3.07,3.07,0,0,1,2.74-.38.38.38,0,0,0,.51-.19.39.39,0,0,0-.2-.51h0a3.8,3.8,0,0,0-3.47.43.39.39,0,0,0-.13.52h0A.8.8,0,0,0,177,133.2Z" style="fill:#263238"></path><path d="M188.56,133.19a.58.58,0,0,0,.22-.08.39.39,0,0,0-.05-.54h0a3.79,3.79,0,0,0-3.41-.8.38.38,0,0,0-.25.48h0a.41.41,0,0,0,.48.25h0a3.08,3.08,0,0,1,2.7.68A.4.4,0,0,0,188.56,133.19Z" style="fill:#263238"></path><path d="M193.22,123.79l-.53,3.53a2.65,2.65,0,0,1,1.23,3.36c-1.23,2.94.32,7.61,2.55,9.51,0,0,.11-1.28,1.19-.95s.58,7-1.63,10.19c0,0,3.29-2.81,5.31-9.8,1.87-6.47,2.23-11.9,1-14.46Z" style="fill:#263238"></path><path d="M176.56,130.39s-2.7-6.92,2.14-9.43a4.82,4.82,0,0,1,3.55-4.35c4.93-1.62,12.94,3.69,17.07,4.48s5.47,8.47,3.29,13.07c0,0-6.58-3.84-12.83-4.49s-5.57-3.4-6.56-4.47-2.55,1.3-2.55,1.3S179.77,124.88,176.56,130.39Z" style="fill:#263238"></path><path d="M182.79,144.83a20.67,20.67,0,0,1,1.08,2.85l.53-.07c2.42-.33,3.43-1.29,3.81-2.24a3.17,3.17,0,0,0,.19-1.48,3.27,3.27,0,0,0-.19-.83,11.51,11.51,0,0,1-4.6,1.64C183.11,144.79,182.79,144.83,182.79,144.83Z" style="fill:#263238"></path><path d="M183.61,144.7l.34.83c2.27-.32,3.83-.85,4.45-1.64a3.27,3.27,0,0,0-.19-.83A11.51,11.51,0,0,1,183.61,144.7Z" style="fill:#fff"></path><path d="M184.4,147.61c2.42-.33,3.43-1.29,3.81-2.24a7.61,7.61,0,0,0-2.6.9A2.93,2.93,0,0,0,184.4,147.61Z" style="fill:#de5753"></path><path d="M176.29,139.58c1.48-2,10.37-.3,18.67,1.1,0,.11,0,.22,0,.32,2.13-2.83,4.4-3.06,5.92-.74-2.17-2.11-4.06-1.13-5.82,1.3a22.45,22.45,0,0,1,0,7.54c2.35-1.25,4.14-4.15,5.87-7.2-1.71,3.59-3.5,7-6.07,8.18-.06.25-.11.49-.18.73-4.49,3.72-11.87,4.38-15.69,1C176.32,149.32,175.73,144.94,176.29,139.58Z" style="fill:#E52552"></path><path d="M176.29,139.58c1.48-2,10.37-.3,18.67,1.1,0,.11,0,.22,0,.32,2.13-2.83,4.4-3.06,5.92-.74-2.17-2.11-4.06-1.13-5.82,1.3a22.45,22.45,0,0,1,0,7.54c2.35-1.25,4.14-4.15,5.87-7.2-1.71,3.59-3.5,7-6.07,8.18-.06.25-.11.49-.18.73-4.49,3.72-11.87,4.38-15.69,1C176.32,149.32,175.73,144.94,176.29,139.58Z" style="fill:#fff;opacity:0.6000000000000001"></path><path d="M202.93,140.22a7.66,7.66,0,0,1-4.31,3.94c-2.52.9-4-1.31-3.43-3.8.5-2.2,2.4-5.39,5-5.2S204,138,202.93,140.22Z" style="fill:#e4897b"></path><polygon points="194.44 164.42 197.95 170.53 198.78 214.26 201.59 219.01 204.58 214.26 199.72 170.53 201.59 163.23 194.44 164.42" style="fill:#E52552;isolation:isolate"></polygon><polygon points="194.44 164.42 197.95 170.53 198.78 214.26 201.59 219.01 204.58 214.26 199.72 170.53 201.59 163.23 194.44 164.42" style="fill:#fff;opacity:0.5;isolation:isolate"></polygon><path d="M193.62,157.3a13.47,13.47,0,0,0,3.08,5s5.6-5.43,6.35-10.58l5.73.51s.32,10.85-2.23,15.46l-9.85-1.91-1.62,4.38S190,166.54,193.62,157.3Z" style="fill:#E52552"></path><path d="M193.62,157.3a13.47,13.47,0,0,0,3.08,5s5.6-5.43,6.35-10.58l5.73.51s.32,10.85-2.23,15.46l-9.85-1.91-1.62,4.38S190,166.54,193.62,157.3Z" style="opacity:0.1;isolation:isolate"></path><path d="M189.73,231.6l4,1a262.47,262.47,0,0,1,5.5-49.81c2.5-11.59,9.33-25.21,17.35-32.14l-5.18,1s-9.26,8.16-15.66,30.48C192.23,194.19,189.73,217.16,189.73,231.6Z" style="fill:#263238"></path><path d="M186.32,187.53l3.16-.89a15.46,15.46,0,0,0,1.63-2.31c.55-1.06,7.56-3.89,9.44-3.76s.83,7.85-.25,10.34c-1,2.23-7.74,5.39-9.83,4.63s-2.05-.64-2.05-.64l-2.78.44Z" style="fill:#e4897b"></path><path d="M247.82,191.82C232.75,190.24,223,167.23,223,167.23l10.85-4.63C239.46,170.4,244.5,181.23,247.82,191.82Z" style="opacity:0.2;isolation:isolate"></path><path d="M256.57,211l4.15,14.71a14.46,14.46,0,0,0-1.25,3.71c0,1.08,1,15.31,2.33,15s6.67-3.2,8.19-4-.8-13.51-1.59-14.79a6.12,6.12,0,0,0-2.07-1.94l-3.42-15.63Z" style="fill:#e4897b"></path><path d="M221.45,151.69c-3.48,1-3.75,12.77,4.17,17.69,0,0,24.09,15.49,32.95,52.94l8.76-2.63s-6.12-25-16.51-41.42C235.15,153.55,221.45,151.69,221.45,151.69Z" style="fill:#E52552"></path><path d="M221.45,151.69c-3.48,1-3.75,12.77,4.17,17.69,0,0,24.09,15.49,32.95,52.94l8.76-2.63s-6.12-25-16.51-41.42C235.15,153.55,221.45,151.69,221.45,151.69Z" style="opacity:0.1;isolation:isolate"></path></g></g><g id="freepik--character-1--inject-15"><path d="M144.34,139.6c-12.88,18.78-14,21.31-30.26,28.7v28.08s26.06-20.59,34.76-55.4Z" style="fill:#E52552;isolation:isolate"></path><path d="M148.84,141c-5.8,23.19-19.3,40.07-27.66,48.75a77.81,77.81,0,0,1-7.1,6.65V168.3c16.24-7.39,17.38-9.92,30.26-28.7Z" style="fill:#fff;opacity:0.5"></path><path d="M121.18,189.73a77.81,77.81,0,0,1-7.1,6.65V180A31.48,31.48,0,0,1,121.18,189.73Z" style="opacity:0.2;isolation:isolate"></path><path d="M98.82,188.19c-1.17.48-13.1-11.32-10.86-12.27a9.71,9.71,0,0,0,.87-6.35,16.86,16.86,0,0,0-1.4-4.52l9.28,1.73a27.12,27.12,0,0,0-.37,3.9,13.21,13.21,0,0,0,.11,2A4.77,4.77,0,0,0,97.9,176C99.81,176.32,100.18,188.39,98.82,188.19Z" style="fill:#eec1bb"></path><path d="M96.34,170.68a13.21,13.21,0,0,0,.11,2,10.53,10.53,0,0,1-7.62-3.11,16.86,16.86,0,0,0-1.4-4.52l9.28,1.73A27.12,27.12,0,0,0,96.34,170.68Z" style="opacity:0.2;isolation:isolate"></path><polygon points="144.62 401.8 138.31 402.91 135.72 394.31 133.36 386.42 140.63 383.88 142.75 393.36 144.62 401.8" style="fill:#eec1bb"></polygon><polygon points="142.78 393.56 135.75 394.48 133.38 386.5 140.64 383.92 142.78 393.56" style="opacity:0.2;isolation:isolate"></polygon><polygon points="100.31 402.03 93.91 402.03 92.86 393.01 91.91 384.77 99.51 383.51 99.94 393.31 100.31 402.03" style="fill:#eec1bb"></polygon><polygon points="99.94 393.39 92.86 393.08 91.91 384.81 99.51 383.53 99.94 393.39" style="opacity:0.2;isolation:isolate"></polygon><path d="M143,386.13l-11,1.93c-11-27.53-18.91-55.51-24.46-74.58-3-10.29-5.32-19.44-7.11-27.56l.5,30V388H89.82c-27-129-7.88-162.48-7.88-162.48L114.3,220A146.33,146.33,0,0,1,117,238.07l1.46,10.7,12.65,65.32Z" style="fill:#E52552"></path><path d="M108.43,412.56a9,9,0,0,0-2.93-1.48h0s-3.22-3-5-12.29l-4.13-.94a3.51,3.51,0,0,0-3.68,1.57,1.92,1.92,0,0,0-.24.55,24.12,24.12,0,0,0-.34,3,85.26,85.26,0,0,0,.26,10.26l.74,0,.09-6.45c0-2.19,1.8.33,2.35,2.66s1.65,4.82,6.45,4.78C107.57,414.17,109.89,413.88,108.43,412.56Z" style="fill:#2e353a"></path><path d="M99.67,395.47s1,4.24,2.54,8.93a19.54,19.54,0,0,0,3.29,6.68s-3.57.75-5.2-1.62-4-10.54-7.63-10a8.73,8.73,0,0,1,1-1.73C94.3,396.86,99.67,395.47,99.67,395.47Z" style="fill:#eec1bb"></path><path d="M152.11,412.56a9,9,0,0,0-2.93-1.48h0s-3.22-3-5-12.29l-4.12-.94a3.49,3.49,0,0,0-3.68,1.57,2.27,2.27,0,0,0-.25.55,26.1,26.1,0,0,0-.34,3,84.6,84.6,0,0,0,.27,10.26l.74,0,.09-6.45c0-2.19,1.79.33,2.35,2.66s1.65,4.82,6.44,4.78C151.25,414.17,153.56,413.88,152.11,412.56Z" style="fill:#2e353a"></path><path d="M143.35,395.47s1,4.24,2.54,8.93a19.54,19.54,0,0,0,3.29,6.68s-3.57.75-5.2-1.62-4-10.54-7.63-10a8.17,8.17,0,0,1,1-1.73C138,396.86,143.35,395.47,143.35,395.47Z" style="fill:#eec1bb"></path><path d="M107.55,313.48c-3-10.29-5.32-19.44-7.11-27.56a253.89,253.89,0,0,1,2.09-28.74S107.27,294.25,107.55,313.48Z" style="opacity:0.2;isolation:isolate"></path><path d="M209.31,217c-4.8,3.79-8.56,6.67-8.56,6.67l-.89-4.64C201.36,218.31,205.59,216.49,209.31,217Z" style="opacity:0.2;isolation:isolate"></path><path d="M100.81,170.92l-4.3,7.54L81.93,174.6l-1.63,2s-9.12-.54-12.49,11.58a148,148,0,0,1,6.42,44.38s-3.27,44.2-2.14,59.58c0,0,28.27,4.09,56.36-8,0,0-8.8-45.87-12.4-73.71,0,0,4.72-31-2-42.18l-10.2,2.62S101.37,169.62,100.81,170.92Z" style="fill:#E52552;isolation:isolate"></path><path d="M128.45,284.19c-28.09,12.07-56.36,8-56.36,8-1.13-15.38,2.14-59.58,2.14-59.58,0-1.68,0-3.34,0-5,0-.93,0-1.85-.09-2.77a149.4,149.4,0,0,0-6.32-36.62c3.37-12.12,12.49-11.58,12.49-11.58l1.63-2,14.58,3.86,4.3-7.54c.56-1.3,3.07,0,3.07,0l10.2-2.62c6.69,11.15,2,42.18,2,42.18.1.77.2,1.55.31,2.35C120.13,240.82,128.45,284.19,128.45,284.19Z" style="fill:#fff;opacity:0.6000000000000001"></path><path d="M116.36,212.83A67.87,67.87,0,0,1,74.22,227.6c0-.93,0-1.85-.09-2.77a76.28,76.28,0,0,0,41.92-14.35C116.15,211.25,116.25,212,116.36,212.83Z" style="opacity:0.2;isolation:isolate"></path><path d="M89.41,139.16s11.72-1.78,14,6.91a16.24,16.24,0,0,1-3.32,15.15Z" style="fill:#263238"></path><path d="M91.58,141c8.06-.44,10.89,3.73,11.94,12,1.3,10.34-.6,17.84-10.79,16.17C78.87,166.93,78.19,141.74,91.58,141Z" style="fill:#eec1bb"></path><path d="M98.28,152.85a17,17,0,0,0,2.53,3.21,2.21,2.21,0,0,1-2.08,1Z" style="fill:#d4827d"></path><path d="M92.93,146.9a4.2,4.2,0,0,0-3.43,1.41" style="fill:none;stroke:#263238;stroke-linecap:round;stroke-linejoin:round;stroke-width:0.686238px"></path><path d="M98.77,146.24a3.72,3.72,0,0,1,3.24.49" style="fill:none;stroke:#263238;stroke-linecap:round;stroke-linejoin:round;stroke-width:0.686238px"></path><path d="M83.51,155.08s3.41-6.83,2.56-11.91c0,0,15.61-7.4,17.29,8.77,0,0,.77-14.44-13.1-14.05-17.17.49-12.7,20.71-5.22,26.36C85,164.25,81.41,159.35,83.51,155.08Z" style="fill:#263238"></path><path d="M92.44,160a6.49,6.49,0,0,0,4.63,1.87" style="fill:none;stroke:#263238;stroke-linecap:round;stroke-linejoin:round;stroke-width:0.686238px"></path><path d="M104.38,155c-1.44-2-10.1-.32-18.19,1.07,0,.11,0,.22,0,.32-2.08-2.83-4.29-3.07-5.77-.75,2.11-2.1,4-1.12,5.68,1.31a23,23,0,0,0,0,7.54c-2.3-1.25-4-4.15-5.73-7.21,1.67,3.59,3.42,7,5.93,8.19.05.24.1.49.17.73,4.38,3.73,11.58,4.4,15.29,1.06C104.37,164.77,104.94,160.4,104.38,155Z" style="fill:#E52552"></path><path d="M104.38,155c-1.44-2-10.1-.32-18.19,1.07,0,.11,0,.22,0,.32-2.08-2.83-4.29-3.07-5.77-.75,2.11-2.1,4-1.12,5.68,1.31a23,23,0,0,0,0,7.54c-2.3-1.25-4-4.15-5.73-7.21,1.67,3.59,3.42,7,5.93,8.19.05.24.1.49.17.73,4.38,3.73,11.58,4.4,15.29,1.06C104.37,164.77,104.94,160.4,104.38,155Z" style="fill:#fff;opacity:0.6000000000000001"></path><path d="M93.16,152.48c0,.66-.26,1.23-.7,1.26s-.84-.47-.89-1.13.26-1.23.7-1.26S93.11,151.82,93.16,152.48Z" style="fill:#263238"></path><path d="M92.09,151.39l1.39-.67S92.86,152,92.09,151.39Z" style="fill:#263238"></path><path d="M101.37,151.7c0,.66-.26,1.23-.7,1.26s-.84-.47-.9-1.14.27-1.22.71-1.25S101.32,151,101.37,151.7Z" style="fill:#263238"></path><path d="M100.3,150.61l1.39-.68S101.07,151.2,100.3,150.61Z" style="fill:#263238"></path><path d="M81.59,159.31c-1.52-5.43.68-14.64,11.2-17.81,11-3.33,11.09,10.05,11.09,10.05s1.81-8.07-6.26-13.66c0,0-.55-5.15-14.18-2.91-7.44,1.22-9.13,9.33-9.21,13.71-.14,7.23,6.44,13.16,6.44,13.16-.36,1.67,3.19,1.67,3.19,1.67A11.79,11.79,0,0,1,81.59,159.31Z" style="fill:#E52552;isolation:isolate"></path><path d="M81.59,159.31c-1.52-5.43.68-14.64,11.2-17.81,11-3.33,11.09,10.05,11.09,10.05s1.81-8.07-6.26-13.66c0,0-.55-5.15-14.18-2.91-7.44,1.22-9.13,9.33-9.21,13.71-.14,7.23,6.44,13.16,6.44,13.16-.36,1.67,3.19,1.67,3.19,1.67A11.79,11.79,0,0,1,81.59,159.31Z" style="fill:#fff;opacity:0.5"></path><path d="M90.38,143.61c5.12-4.37,18-1,14,10.07" style="fill:none;stroke:#263238;stroke-linecap:round;stroke-linejoin:round;stroke-width:0.5px"></path><path d="M84.92,156.71a3.54,3.54,0,0,0-4-3c-2.48.41-3.39,5.61,2.89,6.5C84.73,160.31,85.19,159.41,84.92,156.71Z" style="fill:#eec1bb"></path><path d="M73.55,149s21.2-15.71,33.12-6.09l.53,2.89s-11.3-8.75-33,6.77Z" style="fill:#E52552"></path><path d="M83.86,144.07l2.35,20.11a6.07,6.07,0,0,0,7.25,5.25,47.17,47.17,0,0,1,15.7-.75s-.64-18.11-2.49-25.8C106.67,142.88,96.78,136.08,83.86,144.07Z" style="fill:#fff;opacity:0.2"></path><g style="opacity:0.4"><path d="M96.61,141.18a18.73,18.73,0,0,1,9.18,2.33c1.47,6.55,2.15,20,2.32,24a39.85,39.85,0,0,0-4.29-.22,52.84,52.84,0,0,0-10.56,1.13,5.15,5.15,0,0,1-1,.11,5.08,5.08,0,0,1-5-4.5L84.92,144.6a22.91,22.91,0,0,1,11.69-3.42m0-1a24,24,0,0,0-12.75,3.89l2.35,20.11a6.08,6.08,0,0,0,6,5.38,5.85,5.85,0,0,0,1.23-.13,52.53,52.53,0,0,1,10.36-1.11,38.74,38.74,0,0,1,5.34.36s-.64-18.11-2.49-25.8a19,19,0,0,0-10.06-2.7Z" style="fill:#fff"></path></g><path d="M141.31,141.89l6.74,4,3.32-7s4.93.24,6.23-1.11,3.53-4.51,3.07-5.7-9.56-1.59-10.88-1.59-3.14,5.19-2.49,5.83Z" style="fill:#E52552;isolation:isolate"></path><path d="M141.31,141.89l6.74,4,3.32-7s4.93.24,6.23-1.11,3.53-4.51,3.07-5.7-9.56-1.59-10.88-1.59-3.14,5.19-2.49,5.83Z" style="fill:#fff;opacity:0.7000000000000001"></path><path d="M168.38,125.86v4.22a.75.75,0,0,1-.75.76H156.78a29,29,0,0,0-2,7.8,1.29,1.29,0,0,1-1.56,1.21l-1.15-.25-2.24-.49a1.28,1.28,0,0,1-1-1.55c.51-2.14,1.77-6.48,4.08-9.48v-2.22a.76.76,0,0,1,.75-.76h13.92A.75.75,0,0,1,168.38,125.86Z" style="fill:#263238"></path><path d="M168.38,125.86v4.22a.75.75,0,0,1-.75.76H156.78a29,29,0,0,0-2,7.8,1.29,1.29,0,0,1-1.56,1.21l-1.15-.25-2.24-.49a1.28,1.28,0,0,1-1-1.55c.51-2.14,1.77-6.48,4.08-9.48v-2.22a.76.76,0,0,1,.75-.76h13.92A.75.75,0,0,1,168.38,125.86Z" style="fill:#fff;opacity:0.4"></path><path d="M157.31,128.89a.79.79,0,0,1,0,1.24,1.63,1.63,0,0,0-.49.71,29,29,0,0,0-2,7.8,1.29,1.29,0,0,1-1.56,1.21l-1.15-.25-2.24-.49a1.28,1.28,0,0,1-1-1.55c.51-2.14,1.77-6.48,4.08-9.48h3.36Z" style="fill:#fff;opacity:0.2"></path><path d="M168.38,125.86v0H157.54a1.21,1.21,0,0,0-1.22,1.22v1H153v-2.22a.76.76,0,0,1,.75-.76h13.92A.75.75,0,0,1,168.38,125.86Z" style="fill:#fff;opacity:0.2"></path><path d="M156.32,128.08c-1.93,1.57-3.5,8-4.22,11.52l-2.24-.49a1.28,1.28,0,0,1-1-1.55c.51-2.14,1.77-6.48,4.08-9.48Z" style="fill:#fff;opacity:0.2"></path><path d="M67.81,188.21S57.13,211,60.69,223.37s19.62-6.63,19.62-6.63l-1.25-8.36-4.83,1S72.56,192.51,67.81,188.21Z" style="fill:#E52552;isolation:isolate"></path><path d="M67.81,188.21S57.13,211,60.69,223.37s19.62-6.63,19.62-6.63l-1.25-8.36-4.83,1S72.56,192.51,67.81,188.21Z" style="fill:#fff;opacity:0.5"></path><path d="M74.23,209.38a41.79,41.79,0,0,0-6,1.1S71.44,204.1,74.23,209.38Z" style="opacity:0.2;isolation:isolate"></path><path d="M88.32,193.13l-.46,25.53A1,1,0,0,0,89,219.71l16.81-1.34a1,1,0,0,0,.95-1l.81-25.32a1,1,0,0,0-1.1-1.06l-17.16,1.11A1,1,0,0,0,88.32,193.13Z" style="fill:#E52552"></path><path d="M88.32,193.13l-.46,25.53A1,1,0,0,0,89,219.71l16.81-1.34a1,1,0,0,0,.95-1l.81-25.32a1,1,0,0,0-1.1-1.06l-17.16,1.11A1,1,0,0,0,88.32,193.13Z" style="fill:#fff;opacity:0.4"></path><path d="M88.82,193.71l-.46,25.53a1,1,0,0,0,1.12,1L106.29,219a1,1,0,0,0,.95-1l.81-25.31a1,1,0,0,0-1.1-1.07L89.79,192.7A1,1,0,0,0,88.82,193.71Z" style="fill:#E52552"></path><path d="M88.82,193.71l-.46,25.53a1,1,0,0,0,1.12,1L106.29,219a1,1,0,0,0,.95-1l.81-25.31a1,1,0,0,0-1.1-1.07L89.79,192.7A1,1,0,0,0,88.82,193.71Z" style="fill:#fff;opacity:0.9"></path><path d="M100.42,205.88a2.5,2.5,0,1,1-2.5-2.5H98a2.49,2.49,0,0,0,2.37,2.09A2.69,2.69,0,0,1,100.42,205.88Z" style="opacity:0.1;isolation:isolate"></path><path d="M97.45,202.24c-.72-.74-8.21.24-9.35.77A6.15,6.15,0,0,0,86,205.14l-8.77,3.11,3,10.73L88.08,210c.63.26,7.22.33,8.63-.43S98.17,203,97.45,202.24Z" style="fill:#E52552;isolation:isolate"></path><path d="M97.45,202.24c-.72-.74-8.21.24-9.35.77A6.15,6.15,0,0,0,86,205.14l-8.77,3.11,3,10.73L88.08,210c.63.26,7.22.33,8.63-.43S98.17,203,97.45,202.24Z" style="fill:#fff;opacity:0.7000000000000001"></path></g><g id="freepik--hand-sanitizer--inject-15"><path d="M362.51,232.4a14.76,14.76,0,0,0-5.6-9.11s-.18-5.78,4-5.53,6.85-4.49,6.85-4.49,8.6,6.12,9.16,14.27Z" style="fill:#E52552"></path><path d="M362.51,232.4a14.76,14.76,0,0,0-5.6-9.11s-.18-5.78,4-5.53,6.85-4.49,6.85-4.49,8.6,6.12,9.16,14.27Z" style="fill:#fff;opacity:0.8"></path><rect x="349.87" y="225.53" width="40.12" height="13.74" style="fill:#E52552"></rect><rect x="349.87" y="225.53" width="40.12" height="13.74" style="fill:#fff;opacity:0.6000000000000001"></rect><rect x="349.87" y="225.53" width="22.07" height="13.74" style="fill:#fff;opacity:0.2"></rect><polygon points="414.61 204.01 411.19 214.38 405.98 214.38 403.2 204.89 414.61 204.01" style="fill:#E52552"></polygon><polygon points="414.61 204.01 411.19 214.38 405.98 214.38 403.2 204.89 414.61 204.01" style="opacity:0.2;isolation:isolate"></polygon><path d="M415.67,202.2H401.59a6.34,6.34,0,0,0-6,4.42l-1.61,5.07h1.35l1.45-2.16a5.84,5.84,0,0,1,4.85-2.59h14.09a2.37,2.37,0,0,0,2.37-2.37h0A2.37,2.37,0,0,0,415.67,202.2Z" style="fill:#E52552"></path><rect x="398.47" y="213.01" width="19.57" height="38.76" rx="1.98" transform="translate(816.51 464.79) rotate(180)" style="fill:#E52552"></rect><rect x="398.47" y="213.01" width="19.57" height="38.76" rx="1.98" transform="translate(816.51 464.79) rotate(180)" style="fill:#fff;opacity:0.6000000000000001"></rect><rect x="334.01" y="241.46" width="101.42" height="172.78" transform="translate(769.43 655.71) rotate(180)" style="fill:#E52552"></rect><rect x="334.01" y="241.46" width="101.42" height="172.78" transform="translate(769.43 655.71) rotate(180)" style="fill:#fff;opacity:0.2"></rect><rect x="334.01" y="241.46" width="39.57" height="172.78" transform="translate(707.58 655.71) rotate(180)" style="fill:#fff;opacity:0.2"></rect><path d="M334.65,242.66h100a2.38,2.38,0,0,0,2.39-2.38h0a2.39,2.39,0,0,0-2.39-2.39h-100a2.39,2.39,0,0,0-2.39,2.39h0A2.38,2.38,0,0,0,334.65,242.66Z" style="fill:#E52552"></path><path d="M334.65,242.66h100a2.38,2.38,0,0,0,2.39-2.38h0a2.39,2.39,0,0,0-2.39-2.39h-100a2.39,2.39,0,0,0-2.39,2.39h0A2.38,2.38,0,0,0,334.65,242.66Z" style="opacity:0.2;isolation:isolate"></path><path d="M332.64,389.45a3,3,0,0,0-2.39-4.27,6.38,6.38,0,0,0-2-7,1.5,1.5,0,0,0-.88-.39,1.76,1.76,0,0,0-.94.41l-5.57,4a3.31,3.31,0,0,0-1.11,1.09c-1.14,2.21,3,5,1.28,6.86-.48.52-1.26.63-1.87,1-1.33.83-1.49,2.65-2.1,4.09s-2.78,2.55-3.6,1.22c.6-1.38-1.24-2.57-2.74-2.74s-3.05-.26-3.88-1.66c-2.13,1.85-6.88-3.33-6.77-5.41-1.75.13-2.94,1.76-3.32,3.4a24.36,24.36,0,0,0-.18,5.2c-.05,3.38-1.14,6.7-1.08,10.08,0,2.63,1.06,5.55,3.47,6.61a9,9,0,0,0,3.73.5l27.43-.18A4.06,4.06,0,0,0,332,412c1.24-.64,1.5-2.27,1.62-3.66l1.47-17.88Z" style="fill:#263238"></path><path d="M332.64,389.45a3,3,0,0,0-2.39-4.27,6.38,6.38,0,0,0-2-7,1.5,1.5,0,0,0-.88-.39,1.76,1.76,0,0,0-.94.41l-5.57,4a3.31,3.31,0,0,0-1.11,1.09c-1.14,2.21,3,5,1.28,6.86-.48.52-1.26.63-1.87,1-1.33.83-1.49,2.65-2.1,4.09s-2.78,2.55-3.6,1.22c.6-1.38-1.24-2.57-2.74-2.74s-3.05-.26-3.88-1.66c-2.13,1.85-6.88-3.33-6.77-5.41-1.75.13-2.94,1.76-3.32,3.4a24.36,24.36,0,0,0-.18,5.2c-.05,3.38-1.14,6.7-1.08,10.08,0,2.63,1.06,5.55,3.47,6.61a9,9,0,0,0,3.73.5l27.43-.18A4.06,4.06,0,0,0,332,412c1.24-.64,1.5-2.27,1.62-3.66l1.47-17.88Z" style="fill:#fff;opacity:0.8;isolation:isolate"></path><path d="M334.24,360.46H291.68l.35,4.3.25,3.07.65,8,.37,4.59.49,6.11.21,2.62.07.78.25,3.08.34,4.22.21,2.62.22,2.66.25,3.08.19,2.33.21,2.62.09,1.14h39.06l.09-1.14.21-2.61.19-2.35.25-3.08.22-2.65.21-2.62.34-4.23.25-3.07.06-.78.21-2.62.5-6.11.37-4.58.64-8,.25-3.07.35-4.3Zm2.56,2.82h0l-.82-.82h.89Zm-.21,2.61-.08,1-3.81,3.81-4.37-4.37,3.91-3.91h.92Zm-1.1,13.62-2.79,2.79-4.37-4.37,4.37-4.36,3,3ZM295,376.59h0l3-3,4.37,4.36L298,382.3l-2.78-2.79Zm36.3-4.44-4.37,4.37-4.37-4.37,4.37-4.37Zm-6.87-9.69h5l-2.5,2.5Zm1.08,15.47-4.36,4.37-4.37-4.37,4.37-4.36ZM311,383.71l4.37-4.36,4.36,4.36-4.36,4.37Zm2.95,5.78-4.37,4.37-4.36-4.36,4.37-4.37Zm7.2-4.36,4.36,4.37-4.36,4.36-4.37-4.37Zm-5.78-8.61L311,372.15l4.37-4.37,4.36,4.37Zm-1.42,1.41-4.36,4.37-4.37-4.37,4.37-4.36Zm-10.15-1.41-4.36-4.37,4.36-4.37,4.37,4.37Zm0,2.83,4.37,4.36-4.37,4.37-4.36-4.37Zm4.37,15.93-4.37,4.36-4.36-4.36,4.36-4.37Zm1.41,1.41,4.37,4.37-4.36,4.37-4.37-4.37Zm1.42-1.41,4.37-4.37,4.36,4.37-4.36,4.36Zm10.15,1.41,4.36,4.37-4.36,4.37-4.37-4.37Zm5.78,5.78,4.37,4.37-2.83,2.83h-3.08l-2.83-2.83Zm-4.37-7.19,4.37-4.37,4.37,4.37-4.37,4.36Zm0-11.57,4.37-4.36,4.37,4.36-4.37,4.37Zm2.95-17.34-4.36,4.37-4.37-4.37,3.91-3.91h.92ZM315.36,365l-2.5-2.5h5Zm-1.42,1.41-4.36,4.37-4.37-4.37,3.91-3.91H310Zm-7.65-3.91-2.5,2.5-2.49-2.5Zm-7.82,0,3.91,3.91L298,370.74l-3.8-3.81-.08-1,3.42-3.43Zm-3.74,0-.81.81h0l-.07-.81Zm-.27,7.55,2.14,2.14L294.78,374Zm1.19,14.65-.17-2.07h0l1.12,1.12-1,1Zm.21,2.63,2.15-2.16,4.37,4.37L298,393.86l-1.76-1.76Zm.65,8.08v-.19l.1.1-.09.09Zm.76,9.31-.55-6.7,1.29-1.29,4.37,4.37L298,405.42l-.74-.74Zm.4,5-.08-1,.42-.42,1.42,1.42Zm1.76-2.83,4.36-4.37,4.37,4.37-2.83,2.83h-3.08Zm8.73,2.83,1.42-1.42,1.42,1.42Zm5.66,0L311,406.84l4.37-4.37,4.36,4.37-2.82,2.83Zm5.9,0,1.42-1.42,1.42,1.42Zm13.32,0h-1.76l1.42-1.42.42.42Zm.41-5-.75.74-4.37-4.36,4.37-4.37L334,398Zm.77-9.51,0,.2-.09-.09.11-.11Zm.25-3.07-1.77,1.76-4.37-4.36,4.37-4.37,2.16,2.16Zm.6-7.43-1-1,1.13-1.12ZM336.26,370l-.32,4-1.83-1.83,2.15-2.15Z" style="fill:#263238"></path><g style="opacity:0.6000000000000001;isolation:isolate"><path d="M334.24,360.46H291.68l.35,4.3.25,3.07.65,8,.37,4.59.49,6.11.21,2.62.07.78.25,3.08.34,4.22.21,2.62.22,2.66.25,3.08.19,2.33.21,2.62.09,1.14h39.06l.09-1.14.21-2.61.19-2.35.25-3.08.22-2.65.21-2.62.34-4.23.25-3.07.06-.78.21-2.62.5-6.11.37-4.58.64-8,.25-3.07.35-4.3Zm2.56,2.82h0l-.82-.82h.89Zm-.21,2.61-.08,1-3.81,3.81-4.37-4.37,3.91-3.91h.92Zm-1.1,13.62-2.79,2.79-4.37-4.37,4.37-4.36,3,3ZM295,376.59h0l3-3,4.37,4.36L298,382.3l-2.78-2.79Zm36.3-4.44-4.37,4.37-4.37-4.37,4.37-4.37Zm-6.87-9.69h5l-2.5,2.5Zm1.08,15.47-4.36,4.37-4.37-4.37,4.37-4.36ZM311,383.71l4.37-4.36,4.36,4.36-4.36,4.37Zm2.95,5.78-4.37,4.37-4.36-4.36,4.37-4.37Zm7.2-4.36,4.36,4.37-4.36,4.36-4.37-4.37Zm-5.78-8.61L311,372.15l4.37-4.37,4.36,4.37Zm-1.42,1.41-4.36,4.37-4.37-4.37,4.37-4.36Zm-10.15-1.41-4.36-4.37,4.36-4.37,4.37,4.37Zm0,2.83,4.37,4.36-4.37,4.37-4.36-4.37Zm4.37,15.93-4.37,4.36-4.36-4.36,4.36-4.37Zm1.41,1.41,4.37,4.37-4.36,4.37-4.37-4.37Zm1.42-1.41,4.37-4.37,4.36,4.37-4.36,4.36Zm10.15,1.41,4.36,4.37-4.36,4.37-4.37-4.37Zm5.78,5.78,4.37,4.37-2.83,2.83h-3.08l-2.83-2.83Zm-4.37-7.19,4.37-4.37,4.37,4.37-4.37,4.36Zm0-11.57,4.37-4.36,4.37,4.36-4.37,4.37Zm2.95-17.34-4.36,4.37-4.37-4.37,3.91-3.91h.92ZM315.36,365l-2.5-2.5h5Zm-1.42,1.41-4.36,4.37-4.37-4.37,3.91-3.91H310Zm-7.65-3.91-2.5,2.5-2.49-2.5Zm-7.82,0,3.91,3.91L298,370.74l-3.8-3.81-.08-1,3.42-3.43Zm-3.74,0-.81.81h0l-.07-.81Zm-.27,7.55,2.14,2.14L294.78,374Zm1.19,14.65-.17-2.07h0l1.12,1.12-1,1Zm.21,2.63,2.15-2.16,4.37,4.37L298,393.86l-1.76-1.76Zm.65,8.08v-.19l.1.1-.09.09Zm.76,9.31-.55-6.7,1.29-1.29,4.37,4.37L298,405.42l-.74-.74Zm.4,5-.08-1,.42-.42,1.42,1.42Zm1.76-2.83,4.36-4.37,4.37,4.37-2.83,2.83h-3.08Zm8.73,2.83,1.42-1.42,1.42,1.42Zm5.66,0L311,406.84l4.37-4.37,4.36,4.37-2.82,2.83Zm5.9,0,1.42-1.42,1.42,1.42Zm13.32,0h-1.76l1.42-1.42.42.42Zm.41-5-.75.74-4.37-4.36,4.37-4.37L334,398Zm.77-9.51,0,.2-.09-.09.11-.11Zm.25-3.07-1.77,1.76-4.37-4.36,4.37-4.37,2.16,2.16Zm.6-7.43-1-1,1.13-1.12ZM336.26,370l-.32,4-1.83-1.83,2.15-2.15Z" style="fill:#fff"></path></g><rect x="288.95" y="358.67" width="52.8" height="5.57" rx="1.64" transform="translate(630.71 722.92) rotate(180)" style="fill:#263238"></rect><rect x="292.76" y="408.67" width="45.19" height="5.57" rx="1.64" style="fill:#263238"></rect></g></svg>